<svg width="150" height="65" viewBox="0 0 110 25" fill="none" xmlns="http://www.w3.org/2000/svg">
<path d="M46.0119 20.1637L41.5057 20.1584C40.7507 20.1576 40.0032 20.0081 39.306 19.7184C38.6087 19.4287 37.9754 19.0045 37.4421 18.4701C36.9088 17.9356 36.4859 17.3014 36.1977 16.6035C35.9096 15.9056 35.7616 15.1579 35.7625 14.4028L35.8417 4.36556C35.844 4.06379 35.9438 3.77084 36.1261 3.53033C36.3084 3.28982 36.5634 3.11461 36.8533 3.03078L38.4153 2.5791L38.4012 14.3227C38.4005 14.751 38.4843 15.1751 38.6477 15.571C38.8111 15.9669 39.0509 16.3266 39.3535 16.6297C39.6561 16.9327 40.0154 17.1732 40.411 17.3372C40.8066 17.5013 41.2307 17.5857 41.6589 17.5857L45.4555 17.5901C45.6043 17.5903 45.7469 17.6496 45.8521 17.7549C45.9573 17.8603 46.0163 18.003 46.0163 18.1518L46.0119 20.1637Z" fill="#0098FF"/>
<path d="M47.5092 9.5964L47.4984 20.1655L50.0675 20.1681L50.0784 9.59905L47.5092 9.5964Z" fill="#0098FF"/>
<path d="M47.5112 7.6189H50.0804L50.0848 3.72813L48.4295 4.20623C48.1657 4.28264 47.9339 4.44256 47.7688 4.66197C47.6037 4.88138 47.5142 5.14843 47.5138 5.42302L47.5112 7.6189Z" fill="#0098FF"/>
<path d="M58.4459 6.96734C56.8784 6.94895 55.3605 7.51595 54.1889 8.55746L54.1959 2.60025L51.7042 3.34248L51.6109 20.1699H52.7846C53.016 20.1697 53.2425 20.1032 53.4373 19.9784C53.6322 19.8536 53.7873 19.6756 53.8843 19.4655L54.1819 18.8263C55.3507 19.8704 56.8673 20.4406 58.4345 20.4252C59.318 20.4326 60.1941 20.2634 61.0114 19.9277C61.8287 19.5919 62.5708 19.0964 63.194 18.4701C63.8173 17.8438 64.3092 17.0994 64.641 16.2805C64.9727 15.4615 65.1376 14.5846 65.126 13.7011C65.1396 12.8175 64.9766 11.94 64.6466 11.1201C64.3166 10.3003 63.8262 9.55461 63.2041 8.92683C62.5821 8.29904 61.8409 7.8018 61.0242 7.46426C60.2074 7.12672 59.3314 6.95568 58.4477 6.96118L58.4459 6.96734ZM58.3755 9.48458C59.2088 9.48092 60.0245 9.72475 60.7191 10.1852C61.4138 10.6456 61.9561 11.3018 62.2773 12.0708C62.5986 12.8397 62.6843 13.6868 62.5236 14.5045C62.363 15.3222 61.9632 16.0738 61.3749 16.6641C60.7866 17.2543 60.0363 17.6567 59.2192 17.8201C58.402 17.9835 57.5547 17.9006 56.7847 17.5819C56.0146 17.2633 55.3566 16.7232 54.8938 16.0301C54.4311 15.337 54.1845 14.5221 54.1854 13.6888C54.1786 13.136 54.2822 12.5874 54.4902 12.0751C54.6981 11.5629 55.0063 11.0974 55.3966 10.7058C55.7868 10.3142 56.2513 10.0045 56.7629 9.79478C57.2744 9.58508 57.8227 9.47962 58.3755 9.48458Z" fill="#0098FF"/>
<path d="M86.4964 7.09237C85.3621 7.05033 84.2486 7.4053 83.3479 8.09609L83.119 7.5819C83.0748 7.48323 83.0032 7.39937 82.9126 7.34035C82.8221 7.28133 82.7164 7.24964 82.6083 7.24909H80.7814L80.7655 19.6425C80.7655 19.7913 80.8246 19.9341 80.9297 20.0394C81.0349 20.1447 81.1775 20.204 81.3264 20.2042H83.3347L83.3426 13.0795C83.3426 10.9065 84.5233 9.61049 86.4938 9.61313H86.64C86.7888 9.61313 86.9315 9.55407 87.0368 9.44891C87.1422 9.34376 87.2015 9.20111 87.2017 9.05228V7.09061L86.4964 7.09237Z" fill="#0098FF"/>
<path d="M91.2871 17.6262C91.0802 17.3269 90.9926 16.9611 91.0415 16.6005L91.0494 9.63338L95.8558 9.63866L94.6707 7.08884H91.0529V3.79327L89.5279 4.23967C89.2195 4.33 88.9486 4.51777 88.7558 4.77488C88.5629 5.03199 88.4585 5.34463 88.4582 5.66602L88.4494 16.5961C88.4055 17.1347 88.4815 17.6764 88.6718 18.1823C88.8621 18.6882 89.162 19.1456 89.55 19.5218C90.3178 20.1179 91.2779 20.4109 92.2477 20.3451C92.793 20.341 93.3372 20.2957 93.8757 20.2095L94.0007 20.191C94.1332 20.1708 94.254 20.1039 94.3414 20.0023C94.4288 19.9007 94.4769 19.7712 94.477 19.6372V17.7002L93.7066 17.7671C92.6157 17.8622 91.6094 17.9229 91.2845 17.6253" fill="#0098FF"/>
<path d="M106.205 8.2854L103.096 16.2096L99.4637 8.18327C99.3113 7.84336 99.0642 7.5546 98.7519 7.35159C98.4395 7.14858 98.0753 7.03993 97.7028 7.03867H96.1532L101.624 19.189C101.672 19.2937 101.697 19.407 101.7 19.5219C101.702 19.6368 101.68 19.751 101.637 19.8573C101.25 20.7624 100.463 22.1465 98.9073 22.128H97.6253L98.637 24.3089C98.6817 24.4056 98.7531 24.4875 98.8428 24.5449C98.9325 24.6023 99.0367 24.6329 99.1432 24.6329C101.218 24.6329 103.089 23.1309 104.084 20.6251L109.462 7.06068H108.016C107.625 7.06004 107.244 7.17739 106.921 7.39736C106.599 7.61732 106.35 7.92963 106.208 8.29332" fill="#0098FF"/>
<path d="M74.4579 17.6209C73.6186 17.9597 72.6887 18.0009 71.8227 17.7378C70.9567 17.4746 70.207 16.9228 69.6981 16.1743L79.4924 12.8453C79.4924 12.8453 79.1138 11.7623 79.0768 11.654C78.5413 10.0204 77.4289 8.63779 75.9477 7.76502C75.1784 7.32273 74.3225 7.05203 73.4388 6.97148C72.5551 6.89094 71.6644 7.00245 70.8278 7.29837C69.9766 7.57115 69.1892 8.01302 68.513 8.59747C67.8367 9.18192 67.2854 9.89692 66.8921 10.6996C66.1479 12.3119 66.0661 14.1518 66.6641 15.8239C66.9259 16.6807 67.3612 17.4745 67.9428 18.1559C68.5244 18.8374 69.24 19.392 70.045 19.7852C70.85 20.1784 71.7272 20.4018 72.6223 20.4417C73.5173 20.4815 74.411 20.3368 75.2477 20.0166C76.7746 19.526 78.0792 18.5119 78.9316 17.1534L78.3152 16.5062C78.1801 16.3666 78.0179 16.2558 77.8386 16.1808C77.6594 16.1057 77.4667 16.0679 77.2723 16.0696C77.078 16.0713 76.886 16.1126 76.7081 16.1908C76.5301 16.2691 76.37 16.3827 76.2373 16.5247C75.7405 17.0267 75.1307 17.4023 74.4588 17.62L74.4579 17.6209ZM71.6413 9.68707C72.5195 9.37717 73.4821 9.4086 74.3382 9.77511C75.0576 10.1051 75.6618 10.643 76.0727 11.3194L68.8644 13.768C68.7863 12.8723 69.0198 11.9772 69.5254 11.2338C70.0311 10.4904 70.7778 9.94435 71.6396 9.68795" fill="#0098FF"/>
<path d="M31.0379 9.80682L29.4117 4.59977C29.3317 4.34669 29.1873 4.11875 28.9927 3.93831C28.798 3.75787 28.5598 3.63113 28.3014 3.57051L15.945 0.662342C15.7923 0.626315 15.6337 0.623354 15.4797 0.65366C15.3258 0.683965 15.1801 0.746835 15.0524 0.838054C14.9248 0.929273 14.8181 1.04673 14.7396 1.18256C14.661 1.31838 14.6124 1.46943 14.597 1.62557L14.531 2.28591C14.5276 2.32092 14.5169 2.35483 14.4996 2.38548C14.4824 2.41612 14.4589 2.44282 14.4307 2.46387C14.4025 2.48492 14.3703 2.49986 14.336 2.50772C14.3017 2.51559 14.2662 2.51621 14.2316 2.50955L12.3474 2.14768C11.9106 2.06375 11.4583 2.15452 11.0878 2.40049C10.7172 2.64645 10.4578 3.02798 10.3655 3.46309L8.60108 11.8046C8.56005 12.0005 8.56126 12.203 8.60463 12.3984C8.648 12.5939 8.73252 12.7779 8.85258 12.9381C8.97263 13.0983 9.12546 13.2311 9.30086 13.3276C9.47627 13.4241 9.67024 13.4821 9.86983 13.4977L22.3988 14.4504C22.452 14.4545 22.5055 14.4469 22.5555 14.4281C22.6054 14.4094 22.6507 14.3799 22.6881 14.3419C22.7255 14.3038 22.7542 14.258 22.772 14.2077C22.7899 14.1574 22.7965 14.1038 22.7915 14.0506L22.6735 12.8022L11.9231 11.7218C11.7967 11.7093 11.6742 11.6712 11.563 11.6098C11.4518 11.5485 11.3543 11.4651 11.2763 11.3649C11.1983 11.2647 11.1415 11.1497 11.1094 11.0268C11.0772 10.904 11.0704 10.7759 11.0893 10.6503L12.1194 3.97904C12.1309 3.90384 12.1573 3.83169 12.197 3.76679C12.2368 3.70189 12.289 3.64555 12.3507 3.60105C12.4124 3.55655 12.4824 3.52478 12.5565 3.5076C12.6306 3.49041 12.7074 3.48815 12.7824 3.50095L14.3461 3.76509L14.0353 7.27549C14.0025 7.60351 14.0987 7.93141 14.3035 8.18976C14.5082 8.4481 14.8055 8.6166 15.1323 8.65958L23.8657 9.82267C23.9899 9.83889 24.1057 9.89463 24.1959 9.98166C24.2861 10.0687 24.346 10.1824 24.3666 10.306L25.5544 17.3911C25.5688 17.4767 25.564 17.5644 25.5403 17.6479C25.5167 17.7313 25.4748 17.8085 25.4177 17.8738C25.3605 17.9391 25.2896 17.9909 25.21 18.0254C25.1304 18.06 25.0441 18.0764 24.9574 18.0735L5.45695 17.4395C5.31713 17.4345 5.18028 17.3977 5.0567 17.3321C4.93312 17.2665 4.82603 17.1737 4.74348 17.0607C4.66093 16.9478 4.60508 16.8175 4.58012 16.6799C4.55516 16.5422 4.56174 16.4007 4.59938 16.2659L7.94514 4.27752L7.37019 4.26695C6.89048 4.25648 6.41973 4.398 6.02532 4.67127C5.63091 4.94455 5.33304 5.33557 5.17432 5.78839L0.813393 18.2082C0.731975 18.4403 0.707326 18.6885 0.74151 18.932C0.775693 19.1756 0.867714 19.4074 1.00987 19.6081C1.15203 19.8088 1.34019 19.9725 1.5586 20.0856C1.77702 20.1986 2.01933 20.2577 2.26527 20.2579L25.9427 20.2685C26.1983 20.269 26.4508 20.2121 26.6816 20.102C26.9123 19.992 27.1154 19.8316 27.276 19.6326C27.4365 19.4336 27.5503 19.2012 27.6091 18.9524C27.6679 18.7036 27.6701 18.4448 27.6155 18.195L27.2008 16.3055C27.1904 16.2582 27.1909 16.2091 27.2022 16.1619C27.2136 16.1148 27.2354 16.0708 27.2662 16.0334C27.297 15.9959 27.3358 15.9659 27.3799 15.9456C27.4239 15.9254 27.472 15.9154 27.5205 15.9163L28.7892 15.9419C28.9816 15.9451 29.1721 15.9032 29.3454 15.8196C29.5187 15.736 29.67 15.613 29.7873 15.4604C29.9045 15.3079 29.9844 15.1299 30.0206 14.9409C30.0567 14.7519 30.0481 14.5571 29.9954 14.372L27.8207 6.80973C27.7449 6.54797 27.599 6.31188 27.3988 6.12693C27.1987 5.94198 26.9518 5.81518 26.6849 5.76022L18.0616 3.99929C18.0296 3.9926 17.9965 3.99314 17.9648 4.00089C17.933 4.00864 17.9034 4.02339 17.8781 4.04408C17.8527 4.06476 17.8324 4.09084 17.8184 4.12042C17.8045 4.14999 17.7973 4.18231 17.7975 4.21501V4.97749L26.1813 6.56232C26.3539 6.59481 26.5137 6.67585 26.6418 6.79593C26.77 6.91601 26.8613 7.07015 26.905 7.24027L28.5163 13.5277C28.5386 13.6147 28.54 13.7059 28.5205 13.7936C28.501 13.8813 28.461 13.9633 28.4039 14.0327C28.3467 14.1021 28.274 14.157 28.1917 14.193C28.1093 14.229 28.0196 14.2451 27.9299 14.2399L26.7342 14.166L25.7824 9.80858C25.7224 9.53331 25.5804 9.28266 25.3751 9.08966C25.1699 8.89666 24.911 8.77035 24.6325 8.72737L16.5103 7.47008C16.3129 7.43961 16.1338 7.33707 16.0076 7.18226C15.8814 7.02744 15.8171 6.83135 15.827 6.63188L16.1009 2.31761C16.1051 2.24793 16.1245 2.18 16.1576 2.11855C16.1907 2.05709 16.2368 2.00357 16.2927 1.9617C16.3486 1.91982 16.4129 1.89059 16.4811 1.87603C16.5494 1.86147 16.62 1.86193 16.6881 1.87738L28.1077 4.51701C28.2303 4.54553 28.3431 4.60614 28.4345 4.69263C28.526 4.77912 28.5928 4.88837 28.6281 5.00918L30.3406 10.9347L30.4612 10.8977C30.5714 10.8643 30.6738 10.8093 30.7626 10.736C30.8514 10.6627 30.9247 10.5724 30.9784 10.4706C31.032 10.3687 31.0649 10.2571 31.0751 10.1425C31.0853 10.0278 31.0727 9.91218 31.0379 9.80242" fill="#0098FF"/>
<path d="M22.7914 14.0515L22.6743 12.803L11.923 11.7271C11.7967 11.7145 11.6743 11.6763 11.5633 11.6149C11.4522 11.5535 11.3547 11.4701 11.2769 11.3699C11.199 11.2697 11.1422 11.1547 11.1101 11.0319C11.078 10.9091 11.0712 10.7811 11.0901 10.6556L12.1194 3.97905C12.1309 3.90382 12.1573 3.83164 12.197 3.7667C12.2367 3.70176 12.2889 3.64537 12.3506 3.6008C12.4123 3.55623 12.4822 3.52437 12.5564 3.50708C12.6305 3.48979 12.7073 3.48741 12.7824 3.50008L14.3461 3.76422L14.3373 3.86459L14.5063 2.36781C14.4821 2.41786 14.4421 2.45853 14.3924 2.48352C14.3427 2.50851 14.2862 2.51643 14.2316 2.50604L12.3474 2.14857C11.9106 2.0644 11.4582 2.15508 11.0875 2.40108C10.7169 2.64708 10.4576 3.02876 10.3655 3.46398L8.60192 11.8055C8.56089 12.0014 8.5621 12.2039 8.60547 12.3993C8.64884 12.5948 8.73336 12.7787 8.85342 12.939C8.97347 13.0992 9.1263 13.2319 9.30171 13.3285C9.47711 13.425 9.67108 13.483 9.87067 13.4986L22.3988 14.4513C22.452 14.4554 22.5055 14.4478 22.5554 14.429C22.6054 14.4103 22.6507 14.3808 22.6881 14.3428C22.7255 14.3047 22.7541 14.2589 22.772 14.2086C22.7898 14.1583 22.7965 14.1047 22.7914 14.0515Z" fill="#FF6600"/>
<path d="M29.9954 14.3685L27.8198 6.80884C27.7447 6.54671 27.599 6.31023 27.3988 6.12517C27.1985 5.94011 26.9513 5.81356 26.684 5.75933L18.0608 3.99841C18.0287 3.99203 17.9957 3.99284 17.964 4.00076C17.9323 4.00869 17.9028 4.02355 17.8775 4.04426C17.8522 4.06498 17.8319 4.09103 17.8179 4.12056C17.8039 4.15008 17.7967 4.18233 17.7966 4.215V4.9766L26.1813 6.56143C26.3539 6.59377 26.5136 6.67477 26.6417 6.79489C26.7697 6.91501 26.8608 7.06923 26.9041 7.23939L28.5163 13.5268C28.5384 13.6139 28.5397 13.705 28.52 13.7928C28.5004 13.8805 28.4603 13.9624 28.4031 14.0318C28.346 14.1011 28.2732 14.156 28.1908 14.1921C28.1085 14.2281 28.0188 14.2442 27.929 14.2391L26.7342 14.1695L27.1912 16.2632C27.1877 16.2186 27.1937 16.1737 27.2086 16.1314C27.2235 16.0892 27.2471 16.0505 27.2779 16.0179C27.3087 15.9853 27.3459 15.9595 27.3872 15.9422C27.4285 15.9249 27.473 15.9164 27.5178 15.9172L28.7866 15.9428C28.9789 15.9459 29.1692 15.9041 29.3425 15.8205C29.5157 15.737 29.667 15.614 29.7842 15.4616C29.9014 15.3091 29.9813 15.1313 30.0176 14.9424C30.0538 14.7535 30.0453 14.5588 29.9928 14.3738" fill="#FF6600"/>
</svg>
