<svg version="1.1" xmlns="http://www.w3.org/2000/svg" xmlns:xlink="http://www.w3.org/1999/xlink" x="0px" y="0px" fill="white" width="300px" height="56.77px"
	 viewBox="0 0 498.8 94.2" style="enable-background:new 0 0 498.8 94.2;" xml:space="preserve">
<g>
	<polygon class="st0" points="289.6,91.3 299.9,91.3 299.9,44.7 289.6,47.8 	"/>
	<polygon class="st0" points="289.6,41.1 299.9,38.1 299.9,25.6 289.6,25.5 	"/>
	<path class="st0" d="M410.3,56.9c-2.2-6.5-6.7-12-12.7-15.4c-6.3-3.5-13.8-4.1-20.5-1.7c-6.9,2.3-12.5,7.2-15.6,13.8
		c-2.9,6.5-3.2,13.8-0.7,20.5c5.2,14.7,19.7,21.6,34.5,16.4c7.7-2.7,13.6-8.2,16.2-14.9l-9.2-5.1c-1,4.6-4.8,8.5-10.3,10.4
		c-7.6,2.7-14.8,0.5-19.1-5.6l39.1-13.6C412.1,61.6,410.5,57.3,410.3,56.9z M369.6,65.7c-0.6-7.4,3.5-13.8,10.9-16.4
		c3.5-1.3,7.3-1.2,10.8,0.2c2.9,1.3,5.3,3.4,7,6.1L369.6,65.7z"/>
	<path class="st0" d="M174.9,53.9c6.3,3.2,10.3,9.7,10.1,16.8c0.1,5.6-2.2,11-6.3,14.7c-4.1,3.9-9.7,6-15.4,5.9H152
		c-10.8,0-19.6-8.8-19.6-19.6V19.1h28.7c5.6-0.1,11,1.9,15,5.7c4,3.7,6.2,8.9,6.1,14.3C182.4,44.9,179.7,50.5,174.9,53.9z
		 M161.1,30.3h-16.9v25.1c0,0,12.6-3.8,16.8-5.2c3-1,4.8-1.8,6.6-3.6c3.6-3.8,3.6-9.7,0-13.5C165.9,31.2,163.6,30.2,161.1,30.3z
		 M163.4,80.2c2.6,0.1,5.2-1,7-2.9c3.8-4,3.8-10.3,0-14.3l-0.1-0.1c-2.4-2.4-6-3.2-9.2-2.1l-16.8,5.4v4.4c0,5.4,4.4,9.7,9.7,9.7l0,0
		L163.4,80.2z"/>
	<path class="st0" d="M227.1,42.8l11.1-3.1v51.6h-8.1l-3.1-6.6c-3.4,5.3-8.7,7.9-16,7.9c-5.9,0-10.7-1.9-14.3-5.6
		c-3.7-3.8-5.5-8.9-5.5-15.6V42.8l11.1-3.1v30.5c0,3.9,1,6.8,3.1,8.9c2.1,2.1,4.9,3.1,8.5,3.1c3.5,0.2,7-1.2,9.5-3.7
		c2.4-2.4,3.6-6.2,3.6-11.2L227.1,42.8z"/>
	<path class="st0" d="M334.2,38.4c5.9,0,10.7,1.9,14.3,5.6c3.6,3.8,5.5,8.9,5.5,15.6v31.7h-11.1V60.8c0-3.9-1-6.8-3.1-8.9
		c-2.1-2.1-4.9-3.1-8.5-3.1c-3.5-0.2-7,1.2-9.5,3.7c-2.4,2.4-3.6,6.2-3.6,11.2v27.6h-11.1V42.8l11.1-3.1v6.6
		C321.6,41,326.9,38.4,334.2,38.4z"/>
	<path class="st0" d="M274.3,63.2l-8.2-2.5c-2.4-0.7-4.7-1.6-6.9-2.7c-1.9-1-2.8-2.3-2.8-4c-0.1-1.6,0.8-3.2,2.2-4
		c1.6-1,3.5-1.4,5.3-1.4c3.7,0,6.5,1.3,8.4,3.8l10.6-3.2c-1.7-3.3-4.4-6-7.6-7.8c-3.5-1.9-7.4-2.9-11.4-2.8c-5.4,0-9.8,1.4-13.5,4.3
		c-3.5,2.7-5.5,7-5.4,11.4c-0.1,3.1,0.9,6.1,2.8,8.5c1.8,2.2,4.3,3.8,7,4.6l8.2,2.5c2.4,0.7,4.7,1.7,6.8,2.8c1.9,1,2.8,2.4,2.8,4
		c0,3.9-2.9,5.8-8.8,5.8c-4.7,0-8-1.6-10.1-4.8l-10.8,3.2c1.6,3.6,4.4,6.6,7.8,8.6c4,2.2,8.5,3.3,13.1,3.2c5.8,0,10.6-1.4,14.4-4.2
		c6.4-4.9,7.7-14,3-20.5C279.5,65.7,277.1,64,274.3,63.2z"/>
	<path class="st0" d="M444,63.2l-8.2-2.5c-2.4-0.7-4.7-1.6-6.9-2.7c-1.9-1-2.8-2.3-2.8-4c-0.1-1.6,0.8-3.2,2.2-4
		c1.6-1,3.5-1.4,5.3-1.4c3.7,0,6.5,1.3,8.4,3.8l10.6-3.2c-1.7-3.3-4.4-6-7.6-7.8c-3.5-1.9-7.4-2.9-11.4-2.8c-5.4,0-9.8,1.4-13.5,4.3
		c-3.5,2.7-5.5,7-5.4,11.4c-0.1,3.1,0.9,6.1,2.8,8.5c1.8,2.2,4.3,3.8,7,4.6l8.2,2.5c2.4,0.7,4.7,1.7,6.8,2.8c1.9,1,2.8,2.4,2.8,4
		c0,3.9-2.9,5.8-8.8,5.8c-4.7,0-8-1.6-10.1-4.8l-10.8,3.1c1.6,3.6,4.4,6.6,7.8,8.6c4,2.2,8.5,3.3,13.1,3.2c5.8,0,10.6-1.4,14.4-4.2
		c6.3-4.9,7.6-14,2.9-20.5C449.2,65.7,446.8,64,444,63.2z"/>
	<path class="st0" d="M487.1,63.2l-8.2-2.5c-2.4-0.7-4.7-1.6-6.9-2.7c-1.9-1-2.8-2.3-2.8-4c-0.1-1.6,0.8-3.2,2.2-4
		c1.6-1,3.5-1.4,5.3-1.4c3.8,0,6.5,1.2,8.5,3.8l10.6-3.2c-1.7-3.3-4.4-6-7.6-7.8c-3.5-1.9-7.4-2.9-11.4-2.8c-5.4,0-9.8,1.4-13.5,4.3
		c-3.5,2.7-5.5,7-5.4,11.4c-0.1,3.1,0.9,6.1,2.8,8.5c1.8,2.2,4.3,3.8,7,4.6l8.2,2.5c2.4,0.7,4.7,1.7,6.8,2.8c1.9,1,2.8,2.4,2.8,4
		c0,3.9-2.9,5.8-8.8,5.8c-4.7,0-8-1.6-10.1-4.8l-10.8,3.2c1.6,3.6,4.4,6.6,7.8,8.6c4,2.2,8.5,3.3,13.1,3.2c5.8,0,10.6-1.4,14.4-4.2
		c6.3-4.9,7.6-14,2.9-20.5C492.3,65.7,489.9,64,487.1,63.2z"/>
	<path class="st0" d="M367.2,30.1h-7.3c-5.1,0-9.3-4.2-9.3-9.3c0,0,0,0,0,0l0.1-16.3c0-1,0.7-1.9,1.6-2.2l2.5-0.7v19.1
		c0,2.9,2.3,5.3,5.3,5.3c0,0,0,0,0,0h6.2c0.5,0,0.9,0.4,0.9,0.9L367.2,30.1z"/>
	
		<rect x="363.1" y="19.4" transform="matrix(1.221725e-03 -1 1 1.221725e-03 349.7637 393.1998)" class="st0" width="17.2" height="4.2"/>
	<path class="st0" d="M369.6,9.7h4.2V3.4l-2.7,0.8c-0.9,0.3-1.5,1.1-1.5,2L369.6,9.7z"/>
	<path class="st0" d="M387.4,8.7c-2.5,0-5,0.9-6.9,2.6V1.5l-4,1.2L376.3,30h1.9c0.8,0,1.5-0.4,1.8-1.1l0.5-1
		c1.9,1.7,4.4,2.6,6.9,2.6c6,0,10.9-4.9,10.9-10.9S393.3,8.6,387.4,8.7L387.4,8.7z M387.3,12.8c3.8,0,6.8,3,6.9,6.8
		c0,3.8-3,6.8-6.8,6.9c-3.8,0-6.8-3-6.9-6.8c0,0,0,0,0,0c0-3.7,2.9-6.8,6.7-6.8C387.2,12.8,387.2,12.8,387.3,12.8z"/>
	<path class="st0" d="M432.9,8.9c-1.8-0.1-3.6,0.5-5.1,1.6l-0.4-0.8c-0.2-0.3-0.5-0.5-0.8-0.5h-3v20.1c0,0.5,0.4,0.9,0.9,0.9h3.3
		V18.6c0-3.5,1.9-5.6,5.1-5.6h0.2c0.5,0,0.9-0.4,0.9-0.9V8.9H432.9z"/>
	<path class="st0" d="M440.7,25.9c-0.3-0.5-0.5-1.1-0.4-1.7V13h7.8l-1.9-4.1h-5.9V3.5l-2.5,0.7c-1,0.3-1.7,1.2-1.7,2.3v17.8
		c-0.1,1.8,0.5,3.5,1.8,4.7c1.2,1,2.8,1.4,4.4,1.3c0.9,0,1.8-0.1,2.6-0.2h0.2c0.5-0.1,0.8-0.5,0.8-0.9v-3.2l-1.2,0.1
		C442.8,26.3,441.2,26.4,440.7,25.9z"/>
	<path class="st0" d="M464.9,10.8l-5,12.9l-5.9-13c-0.5-1.1-1.6-1.9-2.8-1.9h-2.5l8.9,19.7c0.2,0.3,0.2,0.7,0,1.1
		c-0.6,1.5-1.9,3.8-4.4,3.7H451l1.6,3.5c0.2,0.3,0.5,0.5,0.8,0.5l0,0c3.4,0,6.4-2.4,8-6.5l8.7-22h-2.3
		C466.6,8.8,465.4,9.6,464.9,10.8z"/>
	<path class="st0" d="M413.4,25.9c-2.8,1.1-6,0.2-7.7-2.3l15.9-5.4l-0.7-1.9c-0.9-2.6-2.7-4.9-5.1-6.3c-2.5-1.5-5.6-1.7-8.3-0.8
		c-2.8,0.9-5.1,2.9-6.4,5.5c-1.2,2.6-1.3,5.6-0.4,8.3c1.7,5.6,7.6,8.8,13.2,7c0.2-0.1,0.5-0.2,0.7-0.2c2.5-0.8,4.6-2.5,6-4.7l-1-1.1
		c-0.9-0.9-2.4-1-3.3-0.1c0,0-0.1,0.1-0.1,0.1C415.4,24.9,414.5,25.6,413.4,25.9z M408.8,13.1c1.4-0.5,3-0.5,4.4,0.1
		c1.2,0.5,2.2,1.4,2.8,2.5l-11.7,4C404,16.7,405.9,13.9,408.8,13.1z"/>
	<path class="st0" d="M116,51l-6.2-19.6c-0.6-1.9-2.2-3.4-4.2-3.9l-46.5-11c-2.2-0.5-4.5,0.9-5,3.1c0,0.2-0.1,0.4-0.1,0.5l-0.2,2.5
		c0,0.5-0.5,0.9-1,0.9c0,0-0.1,0-0.1,0l-7.1-1.3c-3.4-0.7-6.7,1.5-7.5,4.9l-6.7,31.4c-0.6,2.9,1.2,5.7,4.1,6.3
		c0.2,0,0.5,0.1,0.7,0.1l47.2,3.6c0.8,0.1,1.4-0.5,1.5-1.3c0-0.1,0-0.2,0-0.2l-0.4-4.7L44,58.2c-1.9-0.2-3.3-2-3.1-3.9
		c0,0,0-0.1,0-0.1l3.9-25.1c0.2-1.2,1.3-2,2.5-1.8c0,0,0,0,0,0l5.9,1L52,41.5c-0.3,2.6,1.6,4.9,4.1,5.2L89,51.1
		c1,0.1,1.7,0.9,1.9,1.8l4.5,26.7c0.2,1.2-0.6,2.3-1.8,2.5c-0.1,0-0.3,0-0.4,0l-73.4-2.4c-1.9-0.1-3.4-1.7-3.4-3.6
		c0-0.3,0.1-0.6,0.1-0.8l12.6-45.1h-2.2c-3.7-0.1-7,2.2-8.3,5.7L2.2,82.6c-1.1,3,0.5,6.3,3.5,7.4c0.6,0.2,1.3,0.3,1.9,0.3h89.1
		c3.6,0,6.4-2.9,6.4-6.4c0-0.5,0-0.9-0.1-1.4l-1.6-7.1c-0.1-0.6,0.3-1.3,0.9-1.4c0.1,0,0.2,0,0.3,0l4.8,0.1c2.6,0.1,4.7-2,4.7-4.5
		c0-0.5-0.1-0.9-0.2-1.4l-8.2-28.5c-0.6-2-2.2-3.5-4.3-4l-32.4-6.6c-0.5-0.1-0.9,0.2-1,0.7c0,0.1,0,0.1,0,0.2v2.8l31.6,6
		c1.3,0.2,2.4,1.2,2.7,2.5l6.1,23.7c0.3,1.2-0.4,2.3-1.6,2.6c-0.2,0.1-0.4,0.1-0.7,0.1l-4.5-0.3l-3.6-16.4c-0.5-2.1-2.2-3.7-4.3-4.1
		l-30.6-4.7c-1.5-0.2-2.7-1.6-2.6-3.1l1-16.2c0.1-1,0.9-1.8,1.9-1.7c0.1,0,0.2,0,0.3,0l43,9.9c1,0.2,1.7,0.9,2,1.9l6.5,22.3l0.5-0.1
		C115.6,54.6,116.6,52.8,116,51C116.1,51.1,116,51,116,51z"/>
	<path class="st1" d="M85,67l-0.4-4.7L44,58.2c-2-0.2-3.4-1.9-3.2-3.9c0,0,0-0.1,0-0.1l3.9-25.1c0.2-1.2,1.3-2,2.5-1.8c0,0,0,0,0,0
		l5.9,1v0.4l0.6-5.6c-0.2,0.4-0.6,0.6-1,0.5l-7.1-1.3c-3.4-0.7-6.7,1.5-7.5,4.9l-6.7,31.4c-0.6,2.9,1.2,5.7,4.1,6.3
		c0.2,0,0.5,0.1,0.7,0.1l47.2,3.6c0.8,0.1,1.4-0.5,1.5-1.2C85,67.2,85,67.1,85,67z"/>
	<path class="st1" d="M112.1,68.2l-8.2-28.5c-0.6-2-2.2-3.5-4.3-4l-32.4-6.7c-0.5-0.1-0.9,0.2-1,0.7c0,0.1,0,0.1,0,0.2v2.8l31.6,6
		c1.3,0.2,2.4,1.2,2.7,2.5l6.1,23.7c0.3,1.2-0.4,2.3-1.6,2.6c-0.2,0.1-0.4,0.1-0.7,0.1l-4.5-0.3l1.7,7.9c-0.1-0.7,0.4-1.2,1.1-1.3
		c0,0,0.1,0,0.1,0l4.8,0.1c2.6,0,4.6-2,4.7-4.6C112.2,69,112.2,68.6,112.1,68.2z"/>
</g>
</svg>
